<svg width="556" height="105" viewBox="0 0 556 105" fill="none" xmlns="http://www.w3.org/2000/svg">
<rect y="34" width="6" height="71" fill="black"/>
<rect x="154" y="34" width="6" height="71" fill="black"/>
<rect x="11" width="6" height="105" fill="black"/>
<rect x="165" width="6" height="105" fill="black"/>
<rect x="22" y="12" width="6" height="93" fill="black"/>
<rect x="176" y="12" width="6" height="93" fill="black"/>
<rect x="33" y="38" width="6" height="67" fill="black"/>
<rect x="187" y="38" width="6" height="67" fill="black"/>
<rect x="44" y="20" width="6" height="85" fill="black"/>
<rect x="198" y="20" width="6" height="85" fill="black"/>
<rect x="55" y="8" width="6" height="97" fill="black"/>
<rect x="209" y="8" width="6" height="97" fill="black"/>
<rect x="66" y="71" width="6" height="34" fill="black"/>
<rect x="220" y="71" width="6" height="34" fill="black"/>
<rect x="77" y="46" width="6" height="59" fill="black"/>
<rect x="231" y="46" width="6" height="59" fill="black"/>
<rect x="88" y="20" width="6" height="85" fill="black"/>
<rect x="242" y="20" width="6" height="85" fill="black"/>
<rect x="99" y="34" width="6" height="71" fill="black"/>
<rect x="253" y="34" width="6" height="71" fill="black"/>
<rect x="110" y="93" width="6" height="12" fill="black"/>
<rect x="121" y="71" width="6" height="34" fill="black"/>
<rect x="132" y="55" width="6" height="50" fill="black"/>
<rect x="143" y="74" width="6" height="31" fill="black"/>
<rect x="308" y="34" width="6" height="71" fill="#A8A8A8"/>
<rect x="462" y="34" width="6" height="71" fill="#A8A8A8"/>
<rect x="319" width="6" height="105" fill="#A8A8A8"/>
<rect x="473" width="6" height="105" fill="#A8A8A8"/>
<rect x="330" y="12" width="6" height="93" fill="#A8A8A8"/>
<rect x="484" y="12" width="6" height="93" fill="#A8A8A8"/>
<rect x="341" y="38" width="6" height="67" fill="#A8A8A8"/>
<rect x="495" y="38" width="6" height="67" fill="#A8A8A8"/>
<rect x="352" y="20" width="6" height="85" fill="#A8A8A8"/>
<rect x="506" y="20" width="6" height="85" fill="#A8A8A8"/>
<rect x="363" y="8" width="6" height="97" fill="#A8A8A8"/>
<rect x="517" y="8" width="6" height="97" fill="#A8A8A8"/>
<rect x="374" y="71" width="6" height="34" fill="#A8A8A8"/>
<rect x="528" y="71" width="6" height="34" fill="#A8A8A8"/>
<rect x="385" y="46" width="6" height="59" fill="#A8A8A8"/>
<rect x="539" y="46" width="6" height="59" fill="#A8A8A8"/>
<rect x="396" y="20" width="6" height="85" fill="#A8A8A8"/>
<rect x="550" y="20" width="6" height="85" fill="#A8A8A8"/>
<rect x="407" y="34" width="6" height="71" fill="#A8A8A8"/>
<rect x="264" y="93" width="6" height="12" fill="#A8A8A8"/>
<rect x="418" y="93" width="6" height="12" fill="#A8A8A8"/>
<rect x="275" y="71" width="6" height="34" fill="#A8A8A8"/>
<rect x="429" y="71" width="6" height="34" fill="#A8A8A8"/>
<rect x="286" y="55" width="6" height="50" fill="#A8A8A8"/>
<rect x="440" y="55" width="6" height="50" fill="#A8A8A8"/>
<rect x="297" y="74" width="6" height="31" fill="#A8A8A8"/>
<rect x="451" y="74" width="6" height="31" fill="#A8A8A8"/>
</svg>
