<svg width="63" height="63" viewBox="0 0 63 63" fill="none" xmlns="http://www.w3.org/2000/svg">
<path d="M62.083 18.4166C56.9419 18.1337 51.8416 19.47 47.4997 22.2374C46.4497 21.0416 45.3705 19.8458 44.233 18.7083L43.3872 17.9208L43.7955 17.5708C45.2218 16.3464 46.2383 14.7139 46.7077 12.8937C47.1771 11.0735 47.0768 9.15308 46.4205 7.39161C45.4723 5.40296 43.9671 3.73246 42.0876 2.58301C40.2081 1.43357 38.0352 0.85466 35.833 0.916609V6.74994C36.8707 6.7355 37.8936 6.99818 38.7959 7.51088C39.6983 8.02359 40.4475 8.76775 40.9663 9.66661C41.4622 10.8333 40.9663 12.1166 39.5955 13.4874L38.9247 14.0999C35.8824 11.5649 32.5425 9.41016 28.9788 7.68328C21.5997 4.35828 17.808 5.90411 15.9413 7.68328C15.3725 8.25345 14.9172 8.92649 14.5997 9.66661L14.0747 11.2124L9.87467 23.8708C13.1997 32.1541 21.2497 46.8833 38.7497 53.2416L53.333 48.4C53.8248 48.2169 54.2581 47.9045 54.5872 47.4958L55.1997 46.9708C59.3705 42.7708 56.6872 34.6916 51.0872 26.8458C54.4123 24.9052 58.241 24.0013 62.083 24.2499V18.4166ZM51.0288 42.8291H50.8538C48.8413 43.9083 40.4997 41.1666 31.0497 31.7166C30.058 30.7249 29.1247 29.7624 28.2788 28.7999C27.9872 28.4791 27.7247 28.1291 27.433 27.7791L25.8872 25.9124L25.0705 24.7749C24.6622 24.2208 24.2538 23.6666 23.9038 23.1416C23.5538 22.6166 23.4372 22.3833 23.2038 22.0041C22.9705 21.6249 22.5622 21.0124 22.2997 20.5166C22.0372 20.0208 21.9205 19.8166 21.7455 19.4374C21.5705 19.0583 21.2497 18.6208 21.0747 18.2124C20.8997 17.8041 20.8122 17.5416 20.6663 17.2208C20.5205 16.8999 20.3455 16.4333 20.2288 16.0541C20.1122 15.6749 20.083 15.4999 20.0247 15.2083C19.9663 14.9166 19.8497 14.5083 19.7913 14.2166C19.7773 13.9835 19.7773 13.7497 19.7913 13.5166C19.7627 13.2646 19.7627 13.0102 19.7913 12.7583L20.1122 11.8541C20.608 11.3291 22.7663 11.1833 26.6163 12.9333C29.1893 14.1693 31.6237 15.675 33.8788 17.4249C32.6494 17.9675 31.3386 18.3026 29.9997 18.4166V24.2499C33.0983 24.0741 36.1048 23.1321 38.7497 21.5083L40.1788 22.8499C41.4622 24.1041 42.5997 25.3583 43.6497 26.5541C41.8911 29.5528 41.1925 33.056 41.6663 36.4999L47.4997 35.3624C47.3025 34.2629 47.3025 33.137 47.4997 32.0374C51.2622 37.7833 51.9622 41.9249 51.0288 42.8291ZM7.833 30.0833L1.32884 49.625C0.859393 51.0597 0.736136 52.5851 0.96914 54.0766C1.20214 55.5681 1.7848 56.9832 2.66947 58.2064C3.55414 59.4296 4.71571 60.4261 6.05924 61.1144C7.40276 61.8026 8.8901 62.1632 10.3997 62.1666C11.392 62.157 12.3765 61.9896 13.3163 61.6708L32.333 55.3416C21.6001 49.8602 12.9848 40.9783 7.833 30.0833Z" fill="white"/>
</svg>
